<svg width="224" height="170" viewBox="0 0 224 170" fill="none" xmlns="http://www.w3.org/2000/svg">
<path d="M40.6397 49.9818C42.301 51.7878 43.1317 54.0021 43.1317 56.6271C43.1317 59.2545 42.301 61.4758 40.6397 63.2911C38.983 65.1088 36.8784 66.0165 34.321 66.0165C31.9737 66.0165 30.0417 65.2838 28.525 63.8138V74.4818H22.4117V47.7885H28.4504V49.7951H28.525C30.0417 48.1105 31.9737 47.2658 34.321 47.2658C36.8784 47.2658 38.983 48.1711 40.6397 49.9818ZM35.441 59.6325C36.2367 58.8485 36.6357 57.8475 36.6357 56.6271C36.6357 55.4091 36.2554 54.4128 35.497 53.6405C34.7364 52.8705 33.7354 52.4831 32.4917 52.4831C31.297 52.4831 30.3124 52.8751 29.5424 53.6591C28.77 54.4431 28.385 55.4325 28.385 56.6271C28.385 57.8475 28.7794 58.8485 29.5704 59.6325C30.366 60.4165 31.339 60.8085 32.4917 60.8085C33.6677 60.8085 34.65 60.4165 35.441 59.6325Z" fill="white"/>
<path d="M43.3026 65.5031V47.7885H49.4159V50.3458H49.4813C49.5303 50.2525 49.6049 50.1381 49.7053 50.0005C49.8103 49.8651 50.0343 49.6248 50.3773 49.2818C50.7249 48.9341 51.0959 48.6238 51.4879 48.3485C51.8799 48.0685 52.3863 47.8211 53.0093 47.6018C53.6299 47.3778 54.2623 47.2658 54.9039 47.2658C55.5689 47.2658 56.2246 47.3591 56.8733 47.5458C57.5196 47.7325 57.9933 47.9168 58.2919 48.0965L58.7773 48.3765L56.2199 53.5565C55.4593 52.9101 54.3999 52.5858 53.0373 52.5858C52.3023 52.5858 51.6699 52.7491 51.1426 53.0711C50.6129 53.3955 50.2373 53.7875 50.0133 54.2471C49.7939 54.7091 49.6399 55.1011 49.5466 55.4231C49.4579 55.7405 49.4159 55.9925 49.4159 56.1791V65.5031H43.3026Z" fill="white"/>
<path d="M75.7252 57.4951H62.8826C62.8826 58.7341 63.2839 59.6558 64.0866 60.2578C64.8939 60.8551 65.7712 61.1538 66.7186 61.1538C67.7079 61.1538 68.4872 61.0231 69.0612 60.7618C69.6399 60.4958 70.2956 59.9685 71.0306 59.1845L75.4546 61.3965C73.6112 64.4765 70.5476 66.0165 66.2612 66.0165C63.5919 66.0165 61.3006 65.1018 59.3919 63.2725C57.4809 61.4431 56.5266 59.2405 56.5266 56.6645C56.5266 54.0838 57.4809 51.8718 59.3919 50.0285C61.3006 48.1875 63.5919 47.2658 66.2612 47.2658C69.0729 47.2658 71.3596 48.0778 73.1212 49.7018C74.8806 51.3258 75.7626 53.6475 75.7626 56.6645C75.7626 57.0751 75.7486 57.3528 75.7252 57.4951ZM63.0506 54.1071H69.7892C69.6516 53.1878 69.2876 52.4808 68.6972 51.9885C68.1116 51.4915 67.3579 51.2418 66.4386 51.2418C65.4236 51.2418 64.6186 51.5078 64.0212 52.0351C63.4239 52.5648 63.0996 53.2555 63.0506 54.1071Z" fill="white"/>
<path d="M79.975 69.6845L81.319 65.5031C79.408 64.8568 77.819 63.7275 76.5496 62.1151C75.285 60.5051 74.655 58.6991 74.655 56.7018C74.655 54.1211 75.6373 51.9021 77.6043 50.0471C79.576 48.1945 81.8626 47.2658 84.4643 47.2658C85.6403 47.2658 86.723 47.4058 87.7123 47.6858C88.7016 47.9611 89.4016 48.2365 89.8123 48.5165L90.4003 48.9271L88.3283 53.1085C87.5676 52.5555 86.5783 52.2778 85.3603 52.2778C84.2076 52.2778 83.2183 52.7048 82.3923 53.5565C81.564 54.4105 81.151 55.4325 81.151 56.6271C81.151 57.8475 81.564 58.8835 82.3923 59.7351C83.2183 60.5891 84.2076 61.0138 85.3603 61.0138C85.9133 61.0138 86.436 60.9461 86.9283 60.8085C87.4253 60.6731 87.7893 60.5331 88.0203 60.3885L88.3283 60.1831L90.4003 64.4298C90.237 64.5488 90.013 64.6958 89.7283 64.8685C89.4413 65.0365 88.7856 65.2698 87.759 65.5685C86.737 65.8671 85.6403 66.0165 84.4643 66.0165C84.1843 66.0165 83.9743 66.0071 83.839 65.9885L83.2883 67.6778C84.371 67.6778 85.3813 67.9881 86.3216 68.6111C87.2666 69.2318 87.7403 70.0951 87.7403 71.1965C87.7403 72.4215 87.3063 73.4691 86.443 74.3418C85.5843 75.2191 84.2683 75.6578 82.495 75.6578C81.5733 75.6578 80.668 75.4151 79.779 74.9298C78.8946 74.4445 78.2343 73.9708 77.8003 73.5111L77.175 72.7925L79.667 70.9258C79.7533 71.0378 79.884 71.1871 80.059 71.3738C80.2316 71.5605 80.5653 71.8031 81.0576 72.1018C81.5546 72.4005 82.033 72.5498 82.495 72.5498C83.0923 72.5498 83.5263 72.4145 83.8016 72.1485C84.0816 71.8871 84.2216 71.5698 84.2216 71.1965C84.2216 70.6925 84 70.3051 83.559 70.0391C83.1226 69.7778 82.6303 69.6471 82.0843 69.6471C81.711 69.6471 81.375 69.6681 81.0763 69.7125C80.7776 69.7615 80.5816 69.8081 80.4883 69.8525L80.3203 69.9551L79.975 69.6845Z" fill="white"/>
<path d="M91.8653 63.3938C89.8983 61.6462 88.9159 59.4038 88.9159 56.6645C88.9159 53.9275 89.9379 51.6781 91.9866 49.9165C94.0399 48.1501 96.5716 47.2658 99.5839 47.2658C102.557 47.2658 105.063 48.1525 107.097 49.9258C109.137 51.6991 110.159 53.9461 110.159 56.6645C110.159 59.3782 109.16 61.6158 107.163 63.3752C105.17 65.1368 102.645 66.0165 99.5839 66.0165C96.4106 66.0165 93.8369 65.1438 91.8653 63.3938ZM96.5973 53.6591C95.8063 54.4431 95.4119 55.4465 95.4119 56.6645C95.4119 57.8848 95.7899 58.8811 96.5506 59.6511C97.3089 60.4235 98.3099 60.8085 99.5559 60.8085C100.751 60.8085 101.733 60.4165 102.505 59.6325C103.275 58.8485 103.663 57.8591 103.663 56.6645C103.663 55.4465 103.264 54.4431 102.468 53.6591C101.677 52.8751 100.706 52.4831 99.5559 52.4831C98.3799 52.4831 97.3929 52.8751 96.5973 53.6591Z" fill="white"/>
<path d="M133.226 52.2778C132.074 52.2778 131.084 52.7048 130.258 53.5565C129.43 54.4105 129.017 55.4325 129.017 56.6271C129.017 57.8475 129.43 58.8835 130.258 59.7351C131.084 60.5892 132.074 61.0138 133.226 61.0138C133.779 61.0138 134.302 60.9462 134.794 60.8085C135.291 60.6731 135.655 60.5332 135.886 60.3885L136.194 60.1831L138.266 64.4298C138.103 64.5488 137.879 64.6958 137.594 64.8685C137.307 65.0365 136.652 65.2698 135.625 65.5685C134.603 65.8672 133.506 66.0165 132.33 66.0165C129.729 66.0165 127.442 65.1018 125.47 63.2725C123.503 61.4431 122.521 59.2545 122.521 56.7018C122.521 54.1211 123.503 51.9021 125.47 50.0471C127.442 48.1945 129.729 47.2658 132.33 47.2658C133.506 47.2658 134.589 47.4058 135.578 47.6858C136.568 47.9611 137.268 48.2365 137.678 48.5165L138.266 48.9271L136.194 53.1085C135.434 52.5555 134.444 52.2778 133.226 52.2778Z" fill="white"/>
<path d="M155.981 57.4951H143.138C143.138 58.7341 143.539 59.6558 144.342 60.2578C145.149 60.8551 146.027 61.1538 146.974 61.1538C147.963 61.1538 148.743 61.0231 149.317 60.7618C149.895 60.4958 150.551 59.9685 151.286 59.1845L155.71 61.3965C153.867 64.4765 150.803 66.0165 146.517 66.0165C143.847 66.0165 141.556 65.1018 139.647 63.2725C137.736 61.4431 136.782 59.2405 136.782 56.6645C136.782 54.0838 137.736 51.8718 139.647 50.0285C141.556 48.1875 143.847 47.2658 146.517 47.2658C149.328 47.2658 151.615 48.0778 153.377 49.7018C155.136 51.3258 156.018 53.6475 156.018 56.6645C156.018 57.0751 156.004 57.3528 155.981 57.4951ZM143.306 54.1071H150.045C149.907 53.1878 149.543 52.4808 148.953 51.9885C148.367 51.4915 147.613 51.2418 146.694 51.2418C145.679 51.2418 144.874 51.5078 144.277 52.0351C143.679 52.5648 143.355 53.2555 143.306 54.1071Z" fill="white"/>
<path d="M156.189 65.5031V47.7885H162.302V50.3458H162.368C162.417 50.2525 162.491 50.1381 162.592 50.0005C162.697 49.8651 162.921 49.6248 163.264 49.2818C163.611 48.9341 163.982 48.6238 164.374 48.3485C164.766 48.0685 165.273 47.8211 165.896 47.6018C166.516 47.3778 167.149 47.2658 167.79 47.2658C168.455 47.2658 169.111 47.3591 169.76 47.5458C170.406 47.7325 170.88 47.9168 171.178 48.0965L171.664 48.3765L169.106 53.5565C168.346 52.9101 167.286 52.5858 165.924 52.5858C165.189 52.5858 164.556 52.7491 164.029 53.0711C163.499 53.3955 163.124 53.7875 162.9 54.2471C162.68 54.7091 162.526 55.1011 162.433 55.4231C162.344 55.7405 162.302 55.9925 162.302 56.1791V65.5031H156.189Z" fill="white"/>
<path d="M171.728 47.7885V41.1898H177.841V47.7885H181.565V52.4458H177.841V58.0831C177.841 59.7141 178.301 60.5285 179.222 60.5285C179.451 60.5285 179.691 60.4865 179.941 60.3978C180.195 60.3045 180.391 60.2111 180.529 60.1178L180.744 59.9778L182.256 64.9151C180.949 65.6478 179.451 66.0165 177.766 66.0165C176.614 66.0165 175.624 65.8158 174.798 65.4191C173.97 65.0155 173.342 64.4741 172.913 63.7951C172.488 63.1185 172.185 62.4045 171.998 61.6578C171.816 60.9065 171.728 60.1038 171.728 59.2498V52.4458H169.17V47.7885H171.728Z" fill="white"/>
<path d="M183.308 63.3938C181.341 61.6462 180.359 59.4038 180.359 56.6645C180.359 53.9275 181.381 51.6781 183.43 49.9165C185.483 48.1501 188.015 47.2658 191.027 47.2658C194 47.2658 196.506 48.1525 198.54 49.9258C200.58 51.6991 201.602 53.9461 201.602 56.6645C201.602 59.3782 200.603 61.6158 198.606 63.3752C196.613 65.1368 194.088 66.0165 191.027 66.0165C187.854 66.0165 185.28 65.1438 183.308 63.3938ZM188.04 53.6591C187.249 54.4431 186.855 55.4465 186.855 56.6645C186.855 57.8848 187.233 58.8811 187.994 59.6511C188.752 60.4235 189.753 60.8085 190.999 60.8085C192.194 60.8085 193.176 60.4165 193.948 59.6325C194.718 58.8485 195.106 57.8591 195.106 56.6645C195.106 55.4465 194.707 54.4431 193.911 53.6591C193.12 52.8751 192.149 52.4831 190.999 52.4831C189.823 52.4831 188.836 52.8751 188.04 53.6591Z" fill="white"/>
<path d="M120.327 31.7258V37.4378C121.732 37.6245 123.09 37.9605 124.397 38.4458C125.708 38.9312 126.676 39.3768 127.299 39.7805L128.223 40.3498L125.274 46.1832C125.031 46.0222 124.698 45.8192 124.275 45.5765C123.858 45.3338 123.067 45.0118 121.905 44.6058C120.747 44.2022 119.679 43.9992 118.703 43.9992C117.439 43.9992 116.482 44.2488 115.829 44.7458C115.18 45.2452 114.858 45.9545 114.858 46.8738C114.858 47.3032 114.998 47.7138 115.278 48.1058C115.563 48.4978 116.076 48.9062 116.818 49.3285C117.565 49.7462 118.192 50.0705 118.703 50.2992C119.219 50.5232 120.085 50.8942 121.298 51.4098C121.354 51.4355 121.401 51.4565 121.438 51.4752C121.48 51.4892 121.531 51.5078 121.587 51.5312C123.664 52.4225 125.444 53.6288 126.926 55.1525C128.412 56.6785 129.157 58.4145 129.157 60.3605C129.157 63.3285 128.354 65.6385 126.749 67.2858C125.143 68.9355 123.001 69.9902 120.327 70.4498V76.3205H115.95V70.7298C114.655 70.6505 113.386 70.4545 112.142 70.1418C110.903 69.8315 109.865 69.4745 109.025 69.0685C108.189 68.6648 107.44 68.2658 106.775 67.8738C106.115 67.4818 105.623 67.1528 105.301 66.8845L104.853 66.4738L108.539 60.3232C108.861 60.5915 109.295 60.9275 109.837 61.3312C110.378 61.7372 111.349 62.2785 112.749 62.9552C114.153 63.6272 115.399 63.9632 116.482 63.9632C119.562 63.9632 121.102 62.9132 121.102 60.8085C121.102 60.3488 120.985 59.9218 120.757 59.5298C120.526 59.1378 120.134 58.7622 119.581 58.4005C119.025 58.0342 118.531 57.7355 118.097 57.5045C117.667 57.2758 116.972 56.9398 116.015 56.4965C115.056 56.0485 114.335 55.7032 113.85 55.4605C111.902 54.4898 110.387 53.2835 109.305 51.8392C108.227 50.3902 107.69 48.8292 107.69 47.1538C107.69 44.7528 108.493 42.6808 110.098 40.9378C111.703 39.1972 113.654 38.0702 115.95 37.5592V31.7258H120.327Z" fill="#FF66C4"/>
<mask id="mask0_17_68" style="mask-type:luminance" maskUnits="userSpaceOnUse" x="108" y="33" width="26" height="27">
<path d="M108.008 33.4393H133.992V59.8713H108.008V33.4393Z" fill="white"/>
</mask>
<g mask="url(#mask0_17_68)">
<path d="M133.842 46.499H130.032C123.51 45.0873 122.059 43.6337 120.647 37.1003V33.4393H120.167V37.1377C118.757 43.6383 117.299 45.092 110.789 46.499H108.01V46.982H110.789C117.299 48.3913 118.757 49.8427 120.167 56.3433V59.974H120.647V56.3807C122.059 49.8497 123.51 48.3937 130.032 46.982H133.842V46.499Z" fill="#10439F"/>
</g>
</svg>
