<svg width="41" height="41" viewBox="0 0 41 41" fill="none" xmlns="http://www.w3.org/2000/svg">
<path d="M20.064 8.35938C22.4585 8.35938 24.7548 9.20486 26.4479 10.7098C28.141 12.2148 29.0921 14.256 29.0921 16.3844C29.0921 19.6765 29.8363 22.1416 30.8013 23.9545C32.0341 26.2707 32.6505 27.4288 32.6163 27.6933C32.5763 28.0021 32.5253 28.087 32.2715 28.2672C32.054 28.4219 30.9722 28.4219 28.8082 28.4219H11.3197C9.15582 28.4219 8.0739 28.4219 7.85641 28.2672C7.6027 28.087 7.55172 28.0021 7.51173 27.6933C7.47744 27.4288 8.09388 26.2707 9.32677 23.9545C10.2917 22.1416 11.0359 19.6765 11.0359 16.3844C11.0359 14.256 11.987 12.2148 13.6801 10.7098C15.3732 9.20486 17.6695 8.35938 20.064 8.35938ZM20.064 8.35938V5.01562M15.6402 33.4375C16.8209 34.4796 18.3719 35.1121 20.0707 35.1121C21.7693 35.1121 23.3203 34.4796 24.5012 33.4375" stroke="white" stroke-width="5.17408" stroke-linecap="round" stroke-linejoin="round"/>
</svg>
