<svg width="14" height="14" viewBox="0 0 14 14" fill="none" xmlns="http://www.w3.org/2000/svg">
<path d="M4.66199 3.878C4.66199 3.234 4.89065 2.68333 5.34799 2.226C5.80532 1.76866 6.35599 1.54 6.99999 1.54C7.64399 1.54 8.19465 1.76866 8.65199 2.226C9.10932 2.68333 9.34265 3.234 9.35199 3.878C9.35199 3.95266 9.34265 4.018 9.32399 4.074L8.55399 7.112C8.52599 7.52266 8.36265 7.868 8.06399 8.148C7.76532 8.428 7.41065 8.568 6.99999 8.568C6.59865 8.568 6.24865 8.43266 5.94999 8.162C5.65132 7.89133 5.48332 7.55533 5.44599 7.154C5.35265 6.874 5.25465 6.566 5.15199 6.23C5.04932 5.894 4.94199 5.488 4.82999 5.012C4.71799 4.536 4.66199 4.158 4.66199 3.878ZM5.43199 10.906C5.43199 10.4767 5.58599 10.1127 5.89399 9.814C6.20199 9.51533 6.57065 9.36133 6.99999 9.352C7.42932 9.34266 7.79799 9.49666 8.10599 9.814C8.41399 10.1313 8.56799 10.4953 8.56799 10.906C8.56799 11.3447 8.41399 11.7133 8.10599 12.012C7.79799 12.3107 7.42932 12.4647 6.99999 12.474C6.57065 12.4833 6.20199 12.3293 5.89399 12.012C5.58599 11.6947 5.43199 11.326 5.43199 10.906Z" fill="black"/>
</svg>
