<svg width="70" height="51" viewBox="0 0 70 51" fill="none" xmlns="http://www.w3.org/2000/svg">
<path d="M45.5 20.4H24.5C23.975 20.4 23.625 20.145 23.625 19.7625C23.625 19.38 23.975 19.125 24.5 19.125H45.5C46.025 19.125 46.375 19.38 46.375 19.7625C46.375 20.145 46.025 20.4 45.5 20.4Z" fill="white"/>
<path d="M45.5 26.1375H24.5C23.975 26.1375 23.625 25.8825 23.625 25.5C23.625 25.1175 23.975 24.8625 24.5 24.8625H45.5C46.025 24.8625 46.375 25.1175 46.375 25.5C46.375 25.8825 46.025 26.1375 45.5 26.1375Z" fill="white"/>
<path d="M45.5 31.875H24.5C23.975 31.875 23.625 31.62 23.625 31.2375C23.625 30.855 23.975 30.6 24.5 30.6H45.5C46.025 30.6 46.375 30.855 46.375 31.2375C46.375 31.62 46.025 31.875 45.5 31.875Z" fill="white"/>
</svg>
