<svg width="33" height="33" viewBox="0 0 33 33" fill="none" xmlns="http://www.w3.org/2000/svg">
<path fill-rule="evenodd" clip-rule="evenodd" d="M14.5662 3.18839C15.7891 2.60387 17.2109 2.60387 18.4338 3.18839C18.9651 3.44233 19.4519 3.85758 20.126 4.43255C20.1609 4.4624 20.1966 4.49268 20.2326 4.52338C20.5598 4.80236 20.663 4.88813 20.7673 4.95805C21.0327 5.13589 21.3307 5.25931 21.644 5.32118C21.7672 5.34551 21.9007 5.35775 22.3295 5.39197C22.3766 5.39574 22.4232 5.39942 22.469 5.40305C23.3522 5.47314 23.99 5.52375 24.5453 5.71988C25.8235 6.17131 26.8287 7.17661 27.2801 8.45467C27.4762 9.00992 27.5268 9.64777 27.5969 10.531C27.6007 10.5768 27.6042 10.6233 27.6081 10.6705C27.6423 11.0993 27.6546 11.2328 27.6789 11.356C27.7406 11.6694 27.8641 11.9674 28.0419 12.2327C28.1119 12.337 28.1977 12.4401 28.4767 12.7675C28.5073 12.8035 28.5376 12.839 28.5674 12.874C29.1424 13.5481 29.5577 14.0349 29.8117 14.5662C30.3962 15.7891 30.3962 17.2109 29.8117 18.4338C29.5577 18.9651 29.1424 19.4519 28.5674 20.126C28.5376 20.1609 28.5073 20.1964 28.4767 20.2326C28.1977 20.5598 28.1119 20.663 28.0419 20.7673C27.8641 21.0327 27.7406 21.3307 27.6789 21.644C27.6546 21.7672 27.6423 21.9007 27.6081 22.3295C27.6042 22.3766 27.6007 22.4232 27.5969 22.469C27.5268 23.3522 27.4762 23.99 27.2801 24.5453C26.8287 25.8235 25.8235 26.8287 24.5453 27.2801C23.99 27.4762 23.3522 27.5268 22.469 27.5969C22.4232 27.6007 22.3766 27.6042 22.3295 27.6081C21.9007 27.6423 21.7672 27.6546 21.644 27.6789C21.3307 27.7406 21.0327 27.8641 20.7673 28.0419C20.663 28.1119 20.5598 28.1977 20.2326 28.4767C20.1964 28.5073 20.1609 28.5376 20.126 28.5674C19.4519 29.1424 18.9651 29.5577 18.4338 29.8117C17.2109 30.3962 15.7891 30.3962 14.5662 29.8117C14.0349 29.5577 13.5481 29.1424 12.874 28.5674C12.839 28.5376 12.8035 28.5073 12.7675 28.4767C12.4401 28.1977 12.337 28.1119 12.2327 28.0419C11.9674 27.8641 11.6694 27.7406 11.356 27.6789C11.2328 27.6546 11.0993 27.6423 10.6705 27.6081C10.6233 27.6042 10.5768 27.6007 10.531 27.5969C9.64777 27.5268 9.00992 27.4762 8.45467 27.2801C7.17661 26.8287 6.17131 25.8235 5.71988 24.5453C5.52375 23.99 5.47314 23.3522 5.40305 22.469C5.39942 22.4232 5.39574 22.3766 5.39197 22.3295C5.35775 21.9007 5.34551 21.7672 5.32118 21.644C5.25931 21.3307 5.13589 21.0327 4.95805 20.7673C4.88813 20.663 4.80236 20.5598 4.52338 20.2326C4.49268 20.1966 4.4624 20.1609 4.43256 20.126C3.85758 19.452 3.44233 18.9651 3.18839 18.4338C2.60387 17.2109 2.60387 15.7891 3.18839 14.5662C3.44233 14.0349 3.85758 13.5481 4.43255 12.874C4.46239 12.839 4.49266 12.8035 4.52338 12.7675C4.80236 12.4401 4.88813 12.337 4.95805 12.2327C5.13589 11.9674 5.25931 11.6694 5.32118 11.356C5.34551 11.2328 5.35775 11.0993 5.39197 10.6705C5.39574 10.6233 5.39942 10.5768 5.40305 10.531C5.47314 9.64779 5.52375 9.00992 5.71988 8.45467C6.17131 7.17661 7.17661 6.17131 8.45467 5.71988C9.00992 5.52375 9.64779 5.47314 10.531 5.40305C10.5768 5.39942 10.6233 5.39574 10.6705 5.39197C11.0993 5.35775 11.2328 5.34551 11.356 5.32118C11.6694 5.25931 11.9674 5.13589 12.2327 4.95805C12.337 4.88813 12.4401 4.80236 12.7675 4.52338C12.8035 4.49266 12.839 4.4624 12.874 4.43255C13.5481 3.85758 14.0349 3.44233 14.5662 3.18839ZM17.5413 5.05574C16.8828 4.74099 16.1172 4.74099 15.4587 5.05574C15.2042 5.17741 14.9358 5.39484 14.11 6.09864C14.0964 6.1102 14.083 6.1216 14.0698 6.13286C13.7987 6.36392 13.6009 6.53259 13.385 6.67728C12.8923 7.00754 12.3389 7.23677 11.7569 7.35166C11.5019 7.402 11.2428 7.42262 10.8878 7.45089C10.8705 7.45227 10.8529 7.45366 10.8352 7.45507C9.75354 7.5414 9.41004 7.57741 9.14397 7.67139C8.45579 7.91446 7.91446 8.45579 7.67139 9.14397C7.57741 9.41004 7.5414 9.75354 7.45507 10.8352C7.45366 10.8529 7.45227 10.8705 7.45089 10.8878C7.42262 11.2428 7.402 11.5019 7.35166 11.7569C7.23677 12.3389 7.00754 12.8923 6.67728 13.385C6.53259 13.6009 6.36392 13.7987 6.13285 14.0698C6.1216 14.083 6.11019 14.0964 6.09864 14.11C5.39484 14.9358 5.17741 15.2042 5.05574 15.4587C4.74099 16.1172 4.74099 16.8828 5.05574 17.5413C5.17741 17.7958 5.39484 18.0642 6.09864 18.89C6.1102 18.9036 6.1216 18.917 6.13286 18.9302C6.36392 19.2013 6.53259 19.3991 6.67728 19.6149C7.00754 20.1077 7.23677 20.6612 7.35166 21.2431C7.402 21.498 7.42262 21.7572 7.45089 22.1122C7.45227 22.1295 7.45366 22.1471 7.45507 22.1649C7.5414 23.2464 7.57741 23.5899 7.67139 23.856C7.91446 24.5442 8.45579 25.0855 9.14397 25.3286C9.41004 25.4227 9.75354 25.4587 10.8352 25.5449L10.8877 25.5492C11.2428 25.5773 11.502 25.598 11.7569 25.6483C12.3389 25.7632 12.8923 25.9925 13.385 26.3227C13.6009 26.4674 13.7987 26.6361 14.0698 26.8671L14.11 26.9013C14.9358 27.6052 15.2042 27.8226 15.4587 27.9443C16.1172 28.259 16.8828 28.259 17.5413 27.9443C17.7958 27.8226 18.0642 27.6052 18.89 26.9013L18.9303 26.8671C19.2013 26.6361 19.3991 26.4674 19.6149 26.3227C20.1077 25.9925 20.6612 25.7632 21.2431 25.6483C21.498 25.598 21.7572 25.5773 22.1122 25.5492L22.1649 25.5449C23.2464 25.4587 23.5899 25.4227 23.856 25.3286C24.5442 25.0855 25.0855 24.5442 25.3286 23.856C25.4227 23.5899 25.4587 23.2464 25.5449 22.1649L25.5492 22.1122C25.5773 21.7572 25.598 21.498 25.6483 21.2431C25.7632 20.6612 25.9925 20.1077 26.3227 19.6149C26.4674 19.3991 26.6361 19.2013 26.8671 18.9303L26.9013 18.89C27.6052 18.0642 27.8226 17.7958 27.9443 17.5413C28.259 16.8828 28.259 16.1172 27.9443 15.4587C27.8226 15.2042 27.6052 14.9358 26.9013 14.11L26.8671 14.0697C26.6361 13.7987 26.4674 13.6009 26.3227 13.385C25.9925 12.8923 25.7632 12.3389 25.6483 11.7569C25.598 11.5019 25.5773 11.2428 25.5492 10.8877L25.5449 10.8352C25.4587 9.75354 25.4227 9.41004 25.3286 9.14397C25.0855 8.45579 24.5442 7.91446 23.856 7.67139C23.5899 7.57741 23.2464 7.5414 22.1649 7.45507C22.1471 7.45366 22.1295 7.45227 22.1122 7.45089C21.7572 7.42262 21.498 7.402 21.2431 7.35166C20.6612 7.23677 20.1077 7.00754 19.6149 6.67728C19.3991 6.53259 19.2013 6.36392 18.9302 6.13285C18.917 6.1216 18.9036 6.11019 18.89 6.09864C18.0642 5.39484 17.7958 5.17741 17.5413 5.05574Z" fill="white"/>
<path fill-rule="evenodd" clip-rule="evenodd" d="M21.3711 11.6289C21.7752 12.033 21.7752 12.6883 21.3711 13.0924L13.0924 21.3711C12.6883 21.7752 12.033 21.7752 11.6289 21.3711C11.2248 20.967 11.2248 20.3118 11.6289 19.9077L19.9077 11.6289C20.3118 11.2248 20.967 11.2248 21.3711 11.6289Z" fill="white"/>
<path d="M21.3293 19.9495C21.3293 20.7115 20.7115 21.3293 19.9495 21.3293C19.1874 21.3293 18.5696 20.7115 18.5696 19.9495C18.5696 19.1874 19.1874 18.5697 19.9495 18.5697C20.7115 18.5697 21.3293 19.1874 21.3293 19.9495Z" fill="white"/>
<path d="M14.4304 13.0505C14.4304 13.8126 13.8126 14.4303 13.0506 14.4303C12.2885 14.4303 11.6708 13.8126 11.6708 13.0505C11.6708 12.2885 12.2885 11.6708 13.0506 11.6708C13.8126 11.6708 14.4304 12.2885 14.4304 13.0505Z" fill="white"/>
</svg>
