<svg xmlns="http://www.w3.org/2000/svg" xmlns:xlink="http://www.w3.org/1999/xlink" width="500" zoomAndPan="magnify" viewBox="0 0 375 374.999991" height="500" preserveAspectRatio="xMidYMid meet" version="1.0"><defs><g/><clipPath id="d4baf1ce93"><path d="M 167.945312 134.570312 L 221.945312 134.570312 L 221.945312 190 L 167.945312 190 Z M 167.945312 134.570312 " clip-rule="nonzero"/></clipPath></defs><g fill="#ff66c4" fill-opacity="1"><g transform="translate(159.666615, 212.473755)"><g><path d="M 34.375 -79.75 L 34.375 -68.078125 C 37.238281 -67.691406 40.007812 -67 42.6875 -66 C 45.363281 -65.007812 47.335938 -64.097656 48.609375 -63.265625 L 50.515625 -62.109375 L 44.46875 -50.1875 C 43.96875 -50.519531 43.289062 -50.929688 42.4375 -51.421875 C 41.582031 -51.921875 39.96875 -52.582031 37.59375 -53.40625 C 35.21875 -54.238281 33.039062 -54.65625 31.0625 -54.65625 C 28.457031 -54.65625 26.492188 -54.144531 25.171875 -53.125 C 23.847656 -52.101562 23.1875 -50.65625 23.1875 -48.78125 C 23.1875 -47.894531 23.472656 -47.050781 24.046875 -46.25 C 24.628906 -45.445312 25.679688 -44.617188 27.203125 -43.765625 C 28.722656 -42.910156 30.003906 -42.25 31.046875 -41.78125 C 32.097656 -41.3125 33.867188 -40.550781 36.359375 -39.5 C 36.460938 -39.445312 36.554688 -39.40625 36.640625 -39.375 C 36.722656 -39.351562 36.820312 -39.3125 36.9375 -39.25 C 41.1875 -37.425781 44.828125 -34.953125 47.859375 -31.828125 C 50.898438 -28.710938 52.421875 -25.171875 52.421875 -21.203125 C 52.421875 -15.128906 50.773438 -10.40625 47.484375 -7.03125 C 44.203125 -3.664062 39.832031 -1.515625 34.375 -0.578125 L 34.375 11.421875 L 25.421875 11.421875 L 25.421875 0 C 22.773438 -0.164062 20.179688 -0.566406 17.640625 -1.203125 C 15.097656 -1.835938 12.972656 -2.566406 11.265625 -3.390625 C 9.554688 -4.222656 8.023438 -5.039062 6.671875 -5.84375 C 5.316406 -6.644531 4.304688 -7.320312 3.640625 -7.875 L 2.734375 -8.703125 L 10.265625 -21.28125 C 10.929688 -20.726562 11.816406 -20.035156 12.921875 -19.203125 C 14.023438 -18.378906 16.007812 -17.273438 18.875 -15.890625 C 21.75 -14.515625 24.289062 -13.828125 26.5 -13.828125 C 32.789062 -13.828125 35.9375 -15.984375 35.9375 -20.296875 C 35.9375 -21.234375 35.703125 -22.097656 35.234375 -22.890625 C 34.765625 -23.691406 33.960938 -24.460938 32.828125 -25.203125 C 31.703125 -25.953125 30.695312 -26.5625 29.8125 -27.03125 C 28.925781 -27.507812 27.503906 -28.203125 25.546875 -29.109375 C 23.585938 -30.015625 22.113281 -30.71875 21.125 -31.21875 C 17.144531 -33.207031 14.050781 -35.675781 11.84375 -38.625 C 9.632812 -41.582031 8.53125 -44.773438 8.53125 -48.203125 C 8.53125 -53.109375 10.171875 -57.34375 13.453125 -60.90625 C 16.742188 -64.46875 20.734375 -66.773438 25.421875 -67.828125 L 25.421875 -79.75 Z M 34.375 -79.75 "/></g></g></g><g clip-path="url(#d4baf1ce93)"><path fill="#10439f" d="M 221.878906 161.835938 L 213.925781 161.835938 C 200.3125 158.886719 197.28125 155.847656 194.335938 142.214844 L 194.335938 134.570312 L 193.332031 134.570312 L 193.332031 142.292969 C 190.390625 155.863281 187.347656 158.894531 173.757812 161.835938 L 167.957031 161.835938 L 167.957031 162.839844 L 173.757812 162.839844 C 187.347656 165.78125 190.390625 168.8125 193.332031 182.382812 L 193.332031 189.960938 L 194.335938 189.960938 L 194.335938 182.460938 C 197.28125 168.824219 200.3125 165.789062 213.925781 162.839844 L 221.878906 162.839844 Z M 221.878906 161.835938 " fill-opacity="1" fill-rule="nonzero"/></g></svg>